<?xml version="1.0" encoding="UTF-8" standalone="no"?>
<svg
   viewbox="0 0 100 100"
   version="1.1"
   id="github_svg"
   sodipodi:docname="github.svg"
   inkscape:version="1.3.2 (091e20ef0f, 2023-11-25, custom)"
   xmlns:inkscape="http://www.inkscape.org/namespaces/inkscape"
   xmlns:sodipodi="http://sodipodi.sourceforge.net/DTD/sodipodi-0.dtd"
   xmlns="http://www.w3.org/2000/svg"
   xmlns:svg="http://www.w3.org/2000/svg">
  <defs
     id="defs1" />
  <sodipodi:namedview
     id="namedview1"
     pagecolor="#ffffff"
     bordercolor="#000000"
     borderopacity="0.25"
     inkscape:showpageshadow="2"
     inkscape:pageopacity="0.0"
     inkscape:pagecheckerboard="0"
     inkscape:deskcolor="#d1d1d1"
     inkscape:zoom="17.800235"
     inkscape:cx="19.606483"
     inkscape:cy="20.842422"
     inkscape:window-width="3440"
     inkscape:window-height="1440"
     inkscape:window-x="0"
     inkscape:window-y="0"
     inkscape:window-maximized="1"
     inkscape:current-layer="github_svg" />
  <path
     fill-rule="evenodd"
     clip-rule="evenodd"
     d="m 15.012212,0.48806717 c -8.1674635,0 -14.77006299,6.65127483 -14.77006299,14.87980883 0,6.577506 4.23051309,12.145228 10.09935599,14.11582 0.733756,0.148142 1.002528,-0.320168 1.002528,-0.714106 0,-0.344959 -0.02419,-1.527374 -0.02419,-2.759371 -4.1086727,0.887037 -4.9642686,-1.773775 -4.9642686,-1.773775 -0.6602901,-1.724494 -1.6386321,-2.16771 -1.6386321,-2.16771 -1.3447668,-0.911527 0.097955,-0.911527 0.097955,-0.911527 1.4916996,0.09856 2.2744336,1.527373 2.2744336,1.527373 1.320278,2.266272 3.4477791,1.625936 4.3036771,1.231696 0.122141,-0.960807 0.51366,-1.625935 0.929364,-1.995382 -3.2769616,-0.34496 -6.7247406,-1.625935 -6.7247406,-7.341496 0,-1.625934 0.5865215,-2.95619 1.515886,-3.990765 C 6.966887,10.219184 6.4532272,8.6915076 7.2604501,6.6468452 c 0,0 1.247114,-0.3942391 4.0590919,1.5273746 a 14.200471,14.200471 0 0 1 3.692667,-0.492799 c 1.247113,0 2.518414,0.1726308 3.692363,0.492799 2.81228,-1.9216137 4.059394,-1.5273746 4.059394,-1.5273746 0.807222,2.0446624 0.29326,3.5723388 0.14663,3.9417878 0.953853,1.034575 1.516189,2.364831 1.516189,3.990765 0,5.715561 -3.447779,6.971745 -6.74923,7.341496 0.538148,0.468008 1.002528,1.354743 1.002528,2.75907 0,1.995382 -0.02419,3.596828 -0.02419,4.089324 0,0.39424 0.269074,0.86255 1.002528,0.714709 C 25.527272,27.512802 29.757785,21.945382 29.757785,15.367876 29.781971,7.139342 23.155186,0.48806717 15.012212,0.48806717 Z"
     id="path1"
     style="stroke-width:0.302331" />
</svg>
